<svg width="25" height="25" viewBox="0 0 25 25" fill="none" xmlns="http://www.w3.org/2000/svg">
<path d="M20.3125 25H3.125C2.2962 25 1.50134 24.6708 0.915291 24.0847C0.32924 23.4987 0 22.7038 0 21.875V4.6875C0 3.8587 0.32924 3.06384 0.915291 2.47779C1.50134 1.89174 2.2962 1.5625 3.125 1.5625H9.375V4.6875H3.125V21.875H20.3125V15.625H23.4375V21.875C23.4375 22.7038 23.1083 23.4987 22.5222 24.0847C21.9362 24.6708 21.1413 25 20.3125 25ZM12.0312 15.1672L9.82813 12.9578L19.6609 3.125H14.0625V0H25V10.9375H21.875V5.33594L12.0312 15.1672Z" fill="#A5A5A5"/>
</svg>
