<svg width="25" height="25" viewBox="0 0 26 25" fill="none" xmlns="http://www.w3.org/2000/svg">
<path d="M18.6075 25C18.2753 25 17.9568 24.8682 17.7219 24.6336C17.487 24.3989 17.3551 24.0807 17.3551 23.7489V20.4961C17.394 20.122 17.3539 19.7438 17.2374 19.3861C17.1209 19.0284 16.9306 18.699 16.6788 18.4193C16.5229 18.2504 16.4165 18.0419 16.3714 17.8165C16.3263 17.5912 16.3442 17.3579 16.4232 17.142C16.5021 16.9262 16.639 16.7363 16.8188 16.593C16.9987 16.4498 17.2145 16.3588 17.4428 16.33C20.4986 15.9672 23.3165 14.9914 23.3165 9.69935C23.3175 8.7111 23.0255 7.74469 22.4774 6.92197C21.9716 6.1646 21.787 5.23785 21.9639 4.34475C22.0768 3.76215 22.0768 3.16333 21.9639 2.58073C21.0261 2.89748 20.1431 3.35749 19.3464 3.94441C19.1958 4.05127 19.0233 4.12351 18.8414 4.15595C18.6595 4.1884 18.4727 4.18024 18.2944 4.13207C16.0342 3.49409 13.6413 3.49409 11.3812 4.13207C11.2028 4.18024 11.016 4.1884 10.8341 4.15595C10.6522 4.12351 10.4798 4.05127 10.3291 3.94441C9.52753 3.35069 8.63519 2.89021 7.68659 2.58073C7.56749 3.16272 7.56749 3.76276 7.68659 4.34475C7.85076 5.24909 7.65774 6.1818 7.14806 6.94699C6.60234 7.77548 6.31071 8.74513 6.30896 9.73688C6.30896 14.6036 8.66346 15.9047 12.1952 16.3551C12.4263 16.3837 12.6448 16.4762 12.8263 16.622C13.0077 16.7679 13.1448 16.9614 13.2222 17.1808C13.295 17.3937 13.309 17.6222 13.2627 17.8424C13.2164 18.0626 13.1116 18.2662 12.9592 18.4319C12.7156 18.692 12.5286 18.9997 12.4101 19.3356C12.2915 19.6715 12.2439 20.0283 12.2704 20.3835V23.7489C12.2704 24.0807 12.1384 24.3989 11.9035 24.6336C11.6687 24.8682 11.3501 25 11.018 25C10.6858 25 10.3673 24.8682 10.1324 24.6336C9.89752 24.3989 9.76557 24.0807 9.76557 23.7489V23.0358C8.53492 23.1772 7.28837 23.0125 6.13686 22.5563C4.98534 22.1001 3.96459 21.3666 3.16544 20.4211C2.75466 19.9662 2.26182 19.5927 1.71266 19.3201C1.55313 19.279 1.40326 19.207 1.2716 19.1081C1.13995 19.0091 1.02909 18.8853 0.945359 18.7435C0.861626 18.6018 0.806658 18.445 0.783595 18.282C0.760531 18.1191 0.769823 17.9532 0.81094 17.7938C0.852056 17.6344 0.924193 17.4847 1.02323 17.3532C1.12227 17.2217 1.24627 17.111 1.38815 17.0273C1.53003 16.9437 1.68701 16.8888 1.85014 16.8657C2.01326 16.8427 2.17933 16.852 2.33886 16.893C3.30227 17.2436 4.1631 17.8284 4.84365 18.5945C6.09605 19.8456 7.34844 20.9465 9.728 20.4961C9.68616 19.8244 9.78424 19.1513 10.016 18.5194C7.43611 17.8689 3.75407 16.0173 3.75407 9.7619C3.75077 8.28017 4.18653 6.8306 5.00646 5.59582C5.15876 5.36788 5.21709 5.09001 5.16928 4.82016C4.9162 3.46972 5.05974 2.07497 5.58257 0.804207C5.65361 0.634767 5.76113 0.483034 5.89749 0.359787C6.03386 0.236539 6.19572 0.144803 6.37158 0.0910943C6.79739 -0.0340132 8.32531 -0.284228 11.2183 1.59238C13.5603 1.02941 16.0025 1.02941 18.3445 1.59238C21.2375 -0.284228 22.7654 -0.046524 23.1787 0.0910943C23.3546 0.144803 23.5164 0.236539 23.6528 0.359787C23.7892 0.483034 23.8967 0.634767 23.9677 0.804207C24.4916 2.07909 24.6351 3.47814 24.381 4.83267C24.3554 4.95471 24.3544 5.08064 24.378 5.20308C24.4017 5.32552 24.4495 5.44203 24.5188 5.54578C25.3411 6.78411 25.777 8.23838 25.7712 9.72437C25.7712 16.0673 22.1142 17.9064 19.5092 18.4819C19.7387 19.1532 19.8323 19.8634 19.7847 20.5712V23.7489C19.7853 24.0681 19.6637 24.3755 19.4449 24.6081C19.226 24.8406 18.9264 24.9808 18.6075 25Z" fill="#A5A5A5"/>
</svg>
