<svg width="62" height="55" viewBox="0 0 62 55" fill="none" xmlns="http://www.w3.org/2000/svg">
<path d="M45.9444 36.6236V27.4355H39.819V36.6236H45.9444Z" fill="#09CE35"/>
<path fill-rule="evenodd" clip-rule="evenodd" d="M0 18.1829H0.00411716C0.00389599 18.2043 0.00378514 18.2258 0.00378514 18.2473V48.8746C0.00378514 52.2575 2.74624 55 6.12923 55H55.1328C58.5158 55 61.2582 52.2575 61.2582 48.8746V18.2473C61.2582 14.8643 58.5158 12.1219 55.1328 12.1219L51.9088 12.1219V12.1204L45.8099 12.1204V12.1219H6.16709V6.06096L51.9088 6.06081V0H6.16709C2.79877 0 0 2.72103 0 6.06841V18.1829ZM6.12923 18.2473H55.1328V48.8746H6.12923L6.12923 18.2473Z" fill="#09CE35"/>
</svg>
