<svg width="24" height="20" viewBox="0 0 24 20" fill="none" xmlns="http://www.w3.org/2000/svg">
<path fill-rule="evenodd" clip-rule="evenodd" d="M2.4 3.99453V16.8H19.2V19.2H1.2C0.537257 19.2 0 18.6627 0 18V1.2C0 0.537257 0.537258 0 1.2 0H22.8C23.4627 0 24 0.537258 24 1.2V18C24 18.6627 23.4627 19.2 22.8 19.2H21.6L21.6 3.95328L14.2359 10.0057C12.9415 11.0695 11.0843 11.0997 9.756 10.0786L6.43844 7.52817L2.4 3.99453ZM4.2223 2.4L7.96154 5.67184L11.2187 8.17582C11.6615 8.51621 12.2806 8.50613 12.712 8.15152L19.7101 2.4H4.2223Z" fill="#A5A5A5"/>
</svg>
