<svg width="50" height="36" viewBox="0 0 50 36" fill="none" xmlns="http://www.w3.org/2000/svg">
<path d="M30.9849 24.8693C31.6312 26.1794 32.634 27.2806 33.878 28.0463C35.1221 28.8121 36.5569 29.2113 38.0177 29.1981C40.9716 29.1981 42.8589 27.7212 42.8589 25.6817C42.8589 23.2382 40.9195 22.3716 37.6698 20.9488L35.8866 20.1843C30.7433 17.9928 27.3248 15.2472 27.3248 9.44352C27.3248 4.09605 31.3995 0.0276345 37.7656 0.0276345C39.8318 -0.122289 41.8963 0.340188 43.7011 1.35724C45.5059 2.3743 46.9708 3.90081 47.9127 5.74591L42.3611 9.31019C41.9976 8.39589 41.3644 7.61385 40.5458 7.06798C39.7272 6.52212 38.7619 6.23829 37.7781 6.2542C37.3493 6.21105 36.9162 6.25774 36.5064 6.39128C36.0967 6.52483 35.7192 6.7423 35.3982 7.02983C35.0771 7.31736 34.8195 7.66863 34.6418 8.06126C34.4641 8.45388 34.3701 8.87924 34.3659 9.31019C34.3659 11.4496 35.6908 12.3141 38.7405 13.639L40.5237 14.4014C46.5815 16.9991 50 19.6468 50 25.6005C50 32.0187 44.9588 35.5351 38.1864 35.5351C35.5484 35.7029 32.9183 35.1038 30.6132 33.8101C28.3082 32.5163 26.4267 30.5832 25.1958 28.244L30.9849 24.8693ZM5.80368 25.4943C6.92442 27.4816 7.94309 29.1606 10.3866 29.1606C12.7281 29.1606 14.2071 28.244 14.2071 24.6818V0.444266H21.3357V24.7818C21.3357 32.1625 17.0069 35.5226 10.6908 35.5226C8.45969 35.6434 6.24431 35.0859 4.33609 33.9236C2.42787 32.7613 0.916215 31.0485 0 29.0106L5.80368 25.4943Z" fill="#F5DE19"/>
</svg>
