<svg width="25" height="25" viewBox="0 0 25 25" fill="none" xmlns="http://www.w3.org/2000/svg">
<path d="M5.59642 25H0.413393V8.30893H5.59642V25ZM3.00178 6.03214C1.34464 6.03214 0 4.65893 0 3.00179C0 2.20566 0.316258 1.44215 0.879202 0.879203C1.44215 0.316259 2.20566 0 3.00178 0C3.79791 0 4.56142 0.316259 5.12436 0.879203C5.68731 1.44215 6.00357 2.20566 6.00357 3.00179C6.00357 4.65893 4.65892 6.03214 3.00178 6.03214ZM24.9946 25H19.8232V16.875C19.8232 14.9384 19.7839 12.4554 17.1286 12.4554C14.4339 12.4554 14.0205 14.5589 14.0205 16.7357V25H8.84285V8.30893H13.8134V10.5857H13.8857C14.5777 9.27411 16.2678 7.89018 18.7893 7.89018C24.0348 7.89018 24.9991 11.3446 24.9991 15.8312V25H24.9946Z" fill="#A5A5A5"/>
</svg>
