<?xml version="1.0" encoding="UTF-8"?>
<!DOCTYPE svg PUBLIC "-//W3C//DTD SVG 1.1//EN" "http://www.w3.org/Graphics/SVG/1.1/DTD/svg11.dtd">
<!-- Creator: CorelDRAW -->
<svg xmlns="http://www.w3.org/2000/svg" xml:space="preserve" width="59.0272mm" height="60.6119mm" version="1.1" style="shape-rendering:geometricPrecision; text-rendering:geometricPrecision; image-rendering:optimizeQuality; fill-rule:evenodd; clip-rule:evenodd"
viewBox="0 0 111.97 114.98"
 xmlns:xlink="http://www.w3.org/1999/xlink"
 xmlns:xodm="http://www.corel.com/coreldraw/odm/2003">
 <defs>
  <style type="text/css">
   <![CDATA[
    .fil0 {fill:#09CE35}
   ]]>
  </style>
 </defs>
 <g id="Camada_x0020_1">
  <metadata id="CorelCorpID_0Corel-Layer"/>
  <path class="fil0" d="M43.74 53.32l-42.28 0c-0.8,0 -1.46,-0.66 -1.46,-1.46l0 -42.7c0,-5.04 4.12,-9.16 9.16,-9.16l43.74 0 0 19.33 -7.59 0 0 -11.75 -36.15 0c-0.85,0 -1.58,0.72 -1.58,1.58l0 36.57 36.15 0c0.85,0 1.58,-0.72 1.58,-1.58l0 -9.64 -15.55 0 0 -7.59 15.55 0 7.59 0 0 7.59 0 9.64c0,5.04 -4.12,9.16 -9.16,9.16z"/>
  <path class="fil0" d="M68.24 53.32l42.28 0c0.8,0 1.46,-0.66 1.46,-1.46l0 -42.7c0,-5.04 -4.12,-9.16 -9.16,-9.16l-16.13 0 0 7.59 16.13 0c0.85,0 1.58,0.72 1.58,1.58l0 36.57 -36.15 0c-0.85,0 -1.58,-0.72 -1.58,-1.58l0 -9.68 -7.59 0 0 9.68c0,5.04 4.12,9.16 9.16,9.16z"/>
  <path class="fil0" d="M102.81 114.98l-42.28 0c-0.8,0 -1.46,-0.66 -1.46,-1.46l0 -42.7c0,-5.04 4.12,-9.16 9.16,-9.16l43.74 0 0 44.15c0,5.04 -4.12,9.16 -9.16,9.16zm1.58 -45.73l-36.15 0c-0.85,0 -1.58,0.72 -1.58,1.58l0 36.57 36.15 0c0.85,0 1.58,-0.72 1.58,-1.58l0 -36.57z"/>
  <path class="fil0" d="M43.74 61.66l-42.28 0c-0.8,0 -1.46,0.66 -1.46,1.46l0 42.7c0,4.5 3.29,8.27 7.59,9.03l0 -9.03 0 -1.88 0 -1.64 27.67 0 4.28 12.38 7.59 0 -4.28 -12.38 2.47 0 4.4 0 3.19 0 0 -31.47c0,-5.04 -4.12,-9.16 -9.16,-9.16zm-36.15 33.04l0 -25.45 36.15 0c0.85,0 1.58,0.72 1.58,1.58l0 15.32 0 3.46 0 5.11 -37.73 0z"/>
  <rect class="fil0" transform="matrix(0.707107 0.707107 -0.707107 0.707107 55.9873 51.8581)" width="7.97" height="7.97" rx="2.2" ry="2.2"/>
  <rect class="fil0" x="76.36" y="79.05" width="18.33" height="18.54" rx="2.25" ry="2.25"/>
  <rect class="fil0" x="76.36" y="17.39" width="18.33" height="18.54" rx="2.25" ry="2.25"/>
 </g>
</svg>
