<?xml version="1.0" encoding="UTF-8"?>
<!DOCTYPE svg PUBLIC "-//W3C//DTD SVG 1.1//EN" "http://www.w3.org/Graphics/SVG/1.1/DTD/svg11.dtd">
<!-- Creator: CorelDRAW -->
<svg xmlns="http://www.w3.org/2000/svg" xml:space="preserve" width="122.477mm" height="28.1064mm" version="1.1" style="shape-rendering:geometricPrecision; text-rendering:geometricPrecision; image-rendering:optimizeQuality; fill-rule:evenodd; clip-rule:evenodd"
viewBox="0 0 365.98 83.99"
 xmlns:xlink="http://www.w3.org/1999/xlink"
 xmlns:xodm="http://www.corel.com/coreldraw/odm/2003">
 <defs>
  <style type="text/css">
   <![CDATA[
    .fil0 {fill:#09CE35}
   ]]>
  </style>
 </defs>
 <g id="Camada_x0020_1">
  <metadata id="CorelCorpID_0Corel-Layer"/>
  <path class="fil0" d="M68.89 83.99l-66.6 0c-1.26,0 -2.3,-1.03 -2.3,-2.3l0 -67.25c0,-7.94 6.5,-14.43 14.43,-14.43l68.89 0 0 30.46 -11.95 0 0 -18.5 -56.94 0c-1.34,0 -2.48,1.14 -2.48,2.48l0 57.6 56.94 0c1.34,0 2.48,-1.14 2.48,-2.48l0 -15.19 -24.5 0 0 -11.95 24.5 0 11.95 0 0 11.95 0 15.19c0,7.94 -6.5,14.43 -14.43,14.43z"/>
  <path class="fil0" d="M107.49 83.99l66.6 0c1.26,0 2.3,-1.03 2.3,-2.3l0 -67.25c0,-7.94 -6.5,-14.43 -14.43,-14.43l-25.41 0 0 11.95 25.41 0c1.34,0 2.48,1.14 2.48,2.48l0 57.6 -56.94 0c-1.34,0 -2.48,-1.14 -2.48,-2.48l0 -15.25 -11.95 0 0 15.25c0,7.94 6.5,14.43 14.43,14.43z"/>
  <path class="fil0" d="M351.54 83.99l-66.6 0c-1.26,0 -2.3,-1.03 -2.3,-2.3l0 -67.25c0,-7.94 6.5,-14.43 14.43,-14.43l68.89 0 0 69.55c0,7.94 -6.5,14.43 -14.43,14.43zm2.48 -72.03l-56.94 0c-1.34,0 -2.48,1.14 -2.48,2.48l0 57.6 56.94 0c1.34,0 2.48,-1.14 2.48,-2.48l0 -57.6z"/>
  <path class="fil0" d="M258.49 0.11l-66.6 0c-1.26,0 -2.3,1.03 -2.3,2.3l0 67.25c0,7.09 5.19,13.03 11.95,14.22l0 -14.22 0 -2.96 0 -2.59 43.59 0 6.75 19.5 11.95 0 -6.75 -19.5 3.89 0 6.93 0 5.02 0 0 -49.56c0,-7.94 -6.5,-14.43 -14.43,-14.43zm-56.94 52.05l0 -40.09 56.94 0c1.34,0 2.48,1.14 2.48,2.48l0 24.13 0 5.44 0 8.04 -59.42 0z"/>
  <rect class="fil0" x="309.87" y="27.39" width="28.88" height="29.2" rx="3.55" ry="3.55"/>
  <rect class="fil0" x="120.28" y="27.39" width="28.88" height="29.2" rx="3.55" ry="3.55"/>
 </g>
</svg>
