<svg width="62" height="23" viewBox="0 0 62 23" fill="none" xmlns="http://www.w3.org/2000/svg">
<g clip-path="url(#clip0)">
<g filter="url(#filter0_f)">
<path d="M9.42522 19.6999C7.50524 19.6999 6.01029 19.1815 4.94038 18.1447C3.88512 17.0933 3.32085 15.6621 3.24757 13.8513C3.23291 13.4132 3.22559 12.7269 3.22559 11.7923C3.22559 10.843 3.23291 10.1567 3.24757 9.73319C3.32085 7.93698 3.89245 6.52046 4.96236 5.48363C6.03228 4.44679 7.51989 3.92838 9.42522 3.92838C10.715 3.92838 11.8069 4.16203 12.7009 4.62933C13.6096 5.08204 14.2911 5.63696 14.7455 6.29411C15.1998 6.95126 15.4416 7.5646 15.471 8.13413V8.17794C15.471 8.29476 15.427 8.38968 15.339 8.4627C15.2511 8.53572 15.1412 8.57223 15.0093 8.57223H13.7122C13.5656 8.57223 13.4557 8.55032 13.3824 8.50651C13.3238 8.4481 13.2652 8.33857 13.2065 8.17794C12.9867 7.52079 12.5617 6.95856 11.9314 6.49126C11.3159 6.02395 10.4805 5.7903 9.42522 5.7903C8.20874 5.7903 7.25608 6.11887 6.56723 6.77602C5.87839 7.43317 5.50465 8.4554 5.44602 9.84271C5.43137 10.2662 5.42404 10.9161 5.42404 11.7923C5.42404 12.6539 5.43137 13.3037 5.44602 13.7418C5.50465 15.1437 5.87839 16.1805 6.56723 16.8523C7.25608 17.5094 8.20874 17.838 9.42522 17.838C10.6563 17.838 11.6383 17.5021 12.3711 16.8304C13.104 16.1586 13.4704 15.151 13.4704 13.8075V12.8875H10.1727C10.0261 12.8875 9.90155 12.8437 9.79895 12.7561C9.71101 12.6539 9.66705 12.5224 9.66705 12.3618V11.6608C9.66705 11.5148 9.71101 11.3907 9.79895 11.2884C9.90155 11.1862 10.0261 11.1351 10.1727 11.1351H15.1412C15.2877 11.1351 15.405 11.1862 15.4929 11.2884C15.5955 11.3761 15.6468 11.5002 15.6468 11.6608V13.7637C15.6468 14.9612 15.3977 16.0053 14.8994 16.8961C14.401 17.7869 13.6829 18.4806 12.7449 18.9771C11.8069 19.459 10.7003 19.6999 9.42522 19.6999ZM23.356 19.6999C21.7584 19.6999 20.432 19.3057 19.3768 18.5171C18.3215 17.7285 17.7646 16.5748 17.706 15.0561C17.706 14.9247 17.7499 14.8151 17.8379 14.7275C17.9258 14.6253 18.0431 14.5742 18.1896 14.5742H19.3768C19.6846 14.5742 19.8751 14.7421 19.9484 15.078C20.0363 16.0126 20.3954 16.7063 21.0256 17.159C21.6558 17.6117 22.4473 17.838 23.3999 17.838C24.4992 17.838 25.3419 17.4802 25.9282 16.7647C26.5291 16.0345 26.8295 15.0561 26.8295 13.8294V6.05316H19.025C18.8785 6.05316 18.7539 6.00935 18.6513 5.92173C18.5634 5.8195 18.5194 5.69538 18.5194 5.54934V4.65124C18.5194 4.50521 18.5634 4.38838 18.6513 4.30076C18.7539 4.19854 18.8785 4.14742 19.025 4.14742H28.5004C28.6616 4.14742 28.7861 4.19854 28.8741 4.30076C28.9767 4.38838 29.028 4.51251 29.028 4.67314V13.8732C29.028 15.6548 28.5224 17.0714 27.511 18.1228C26.5144 19.1742 25.1294 19.6999 23.356 19.6999ZM33.2224 19.4809C33.0758 19.4809 32.9513 19.4371 32.8487 19.3495C32.7607 19.2472 32.7168 19.1231 32.7168 18.9771V4.67314C32.7168 4.51251 32.7607 4.38838 32.8487 4.30076C32.9513 4.19854 33.0758 4.14742 33.2224 4.14742H38.5866C40.2721 4.14742 41.5912 4.54171 42.5439 5.33029C43.4966 6.11887 43.9729 7.25793 43.9729 8.74747C43.9729 9.85732 43.6944 10.77 43.1375 11.4856C42.5952 12.2011 41.8258 12.6977 40.829 12.9751L44.2147 18.8018C44.2587 18.8895 44.2807 18.9698 44.2807 19.0428C44.2807 19.1596 44.2294 19.2618 44.1268 19.3495C44.0389 19.4371 43.9363 19.4809 43.819 19.4809H42.7638C42.5439 19.4809 42.368 19.4298 42.2361 19.3276C42.1189 19.2253 42.009 19.0793 41.9064 18.8895L38.7185 13.3256H34.8712V18.9771C34.8712 19.1231 34.82 19.2472 34.7174 19.3495C34.6148 19.4371 34.4902 19.4809 34.3436 19.4809H33.2224ZM38.4987 11.4637C40.6825 11.4637 41.7744 10.551 41.7744 8.72556C41.7744 6.90015 40.6825 5.98744 38.4987 5.98744H34.8712V11.4637H38.4987ZM52.6413 19.6999C50.7213 19.6999 49.2337 19.2034 48.1785 18.2104C47.1379 17.2028 46.5882 15.6913 46.5296 13.6761C46.515 13.238 46.5076 12.6173 46.5076 11.8142C46.5076 11.011 46.515 10.3976 46.5296 9.97414C46.5882 8.0027 47.1598 6.50586 48.2444 5.48363C49.329 4.44679 50.7946 3.92838 52.6413 3.92838C54.4734 3.92838 55.9317 4.44679 57.0162 5.48363C58.1008 6.50586 58.6724 8.0027 58.731 9.97414C58.7603 10.8211 58.775 11.4345 58.775 11.8142C58.775 12.1792 58.7603 12.7999 58.731 13.6761C58.6724 15.6913 58.1154 17.2028 57.0602 18.2104C56.0196 19.2034 54.5466 19.6999 52.6413 19.6999ZM52.6413 17.838C53.7992 17.838 54.7225 17.4875 55.4114 16.7866C56.1002 16.0856 56.4739 15.0123 56.5326 13.5666C56.5619 12.6904 56.5765 12.1062 56.5765 11.8142C56.5765 11.4929 56.5619 10.9088 56.5326 10.0618C56.4739 8.61604 56.0929 7.54269 55.3894 6.84173C54.7005 6.14078 53.7845 5.7903 52.6413 5.7903C51.4835 5.7903 50.5528 6.14078 49.8493 6.84173C49.1604 7.54269 48.7867 8.61604 48.7281 10.0618C48.7134 10.4853 48.7061 11.0694 48.7061 11.8142C48.7061 12.5443 48.7134 13.1285 48.7281 13.5666C48.7867 15.0123 49.1604 16.0856 49.8493 16.7866C50.5528 17.4875 51.4835 17.838 52.6413 17.838Z" fill="#003300"/>
<path d="M4.94015 18.1447L4.65224 18.4316L4.6563 18.4355L4.94015 18.1447ZM3.24734 13.8513L2.84044 13.8648L2.84055 13.8677L3.24734 13.8513ZM3.24734 9.7332L2.84055 9.71673L2.84046 9.7192L3.24734 9.7332ZM4.96213 5.48363L4.67828 5.19283L4.96213 5.48363ZM12.7007 4.62934L12.5115 4.98854L12.5151 4.99041L12.5186 4.99215L12.7007 4.62934ZM14.7452 6.29412L15.0805 6.06399L14.7452 6.29412ZM15.4707 8.13413H15.8778V8.12375L15.8773 8.11337L15.4707 8.13413ZM15.3388 8.46271L15.0782 8.15109L15.3388 8.46271ZM13.3822 8.50652L13.0943 8.79335L13.1297 8.82868L13.1727 8.85436L13.3822 8.50652ZM13.2063 8.17794L12.8201 8.30621L12.8218 8.3114L12.8237 8.31655L13.2063 8.17794ZM11.9312 6.49126L11.6845 6.81396L11.6882 6.81667L11.9312 6.49126ZM6.567 6.77603L6.28544 6.48303L6.567 6.77603ZM5.4458 9.84272L5.03902 9.82564L5.03891 9.82873L5.4458 9.84272ZM5.4458 13.7418L5.03888 13.7553L5.03903 13.7587L5.4458 13.7418ZM6.567 16.8523L6.28222 17.1422L6.28544 17.1453L6.567 16.8523ZM12.3709 16.8304L12.0952 16.5319L12.3709 16.8304ZM13.4701 12.8875H13.8773V12.4819H13.4701V12.8875ZM9.79872 12.7561L9.4896 13.0201L9.50999 13.0438L9.53377 13.0641L9.79872 12.7561ZM9.79872 11.2884L9.51085 11.0016L9.49977 11.0126L9.4896 11.0245L9.79872 11.2884ZM15.4927 11.2884L15.1836 11.5524L15.204 11.5761L15.2278 11.5965L15.4927 11.2884ZM14.8991 16.8961L14.5435 16.6986L14.8991 16.8961ZM12.7446 18.9771L12.9312 19.3377L12.9356 19.3353L12.7446 18.9771ZM9.42499 19.2943C7.57939 19.2943 6.19791 18.7977 5.224 17.8539L4.6563 18.4355C5.82222 19.5654 7.43063 20.1056 9.42499 20.1056V19.2943ZM5.22803 17.8579C4.26019 16.8935 3.72424 15.5674 3.65413 13.835L2.84055 13.8677C2.917 15.7569 3.50959 17.293 4.65227 18.4315L5.22803 17.8579ZM3.65423 13.8378C3.63982 13.4069 3.63248 12.7262 3.63248 11.7923H2.81824C2.81824 12.7275 2.82555 13.4196 2.84045 13.8648L3.65423 13.8378ZM3.63248 11.7923C3.63248 10.8435 3.63983 10.1631 3.65422 9.74719L2.84046 9.7192C2.82555 10.1502 2.81824 10.8426 2.81824 11.7923H3.63248ZM3.65412 9.74967C3.72411 8.03426 4.26581 6.72431 5.24598 5.77444L4.67828 5.19283C3.51863 6.31663 2.91713 7.83972 2.84056 9.71673L3.65412 9.74967ZM5.24598 5.77444C6.22046 4.8301 7.59506 4.33403 9.42499 4.33403V3.52274C7.44427 3.52274 5.84363 4.0635 4.67828 5.19283L5.24598 5.77444ZM9.42499 4.33403C10.6667 4.33403 11.6898 4.55904 12.5115 4.98854L12.8898 4.27014C11.9235 3.76503 10.7628 3.52274 9.42499 3.52274V4.33403ZM12.5186 4.99215C13.382 5.4223 14.0037 5.9367 14.41 6.52424L15.0805 6.06399C14.578 5.33724 13.8367 4.74179 12.8827 4.26653L12.5186 4.99215ZM14.41 6.52424C14.8379 7.14314 15.0399 7.68464 15.0641 8.1549L15.8773 8.11337C15.8429 7.44458 15.5613 6.7594 15.0805 6.06399L14.41 6.52424ZM15.0636 8.13413V8.17794H15.8778V8.13413H15.0636ZM15.0636 8.17794C15.0636 8.18172 15.0632 8.18192 15.0638 8.17928C15.0644 8.17648 15.0656 8.17206 15.0681 8.16675C15.0706 8.16148 15.0734 8.15705 15.0759 8.15385C15.0783 8.15073 15.0796 8.14991 15.0782 8.15109L15.5995 8.77433C15.7828 8.62213 15.8778 8.4118 15.8778 8.17794H15.0636ZM15.0782 8.15109C15.0743 8.15425 15.061 8.16659 15.009 8.16659V8.97788C15.2209 8.97788 15.4274 8.9172 15.5995 8.77433L15.0782 8.15109ZM15.009 8.16659H13.712V8.97788H15.009V8.16659ZM13.712 8.16659C13.6578 8.16659 13.6215 8.16245 13.5994 8.15803C13.5768 8.15353 13.578 8.15052 13.5917 8.15868L13.1727 8.85436C13.3398 8.95423 13.538 8.97788 13.712 8.97788V8.16659ZM13.6701 8.21969C13.6796 8.22918 13.6724 8.225 13.6535 8.18967C13.6358 8.15669 13.6139 8.10785 13.5889 8.03934L12.8237 8.31655C12.8855 8.48583 12.9686 8.66809 13.0943 8.79335L13.6701 8.21969ZM13.5926 8.04968C13.343 7.30373 12.8623 6.67604 12.1743 6.16585L11.6882 6.81667C12.2605 7.2411 12.63 7.73786 12.8201 8.30621L13.5926 8.04968ZM12.1779 6.16861C11.4697 5.63089 10.5374 5.38466 9.42499 5.38466V6.19595C10.4231 6.19595 11.1616 6.41703 11.6845 6.81391L12.1779 6.16861ZM9.42499 5.38466C8.13373 5.38466 7.06935 5.73518 6.28544 6.48303L6.84857 7.06903C7.44235 6.50258 8.2833 6.19595 9.42499 6.19595V5.38466ZM6.28544 6.48303C5.49188 7.24009 5.10005 8.38162 5.03903 9.82564L5.85255 9.8598C5.90877 8.5292 6.26443 7.62626 6.84857 7.06903L6.28544 6.48303ZM5.03891 9.82873C5.024 10.2596 5.01669 10.9152 5.01669 11.7923H5.83093C5.83093 10.9169 5.83826 10.2729 5.85267 9.85672L5.03891 9.82873ZM5.01669 11.7923C5.01669 12.655 5.02401 13.3103 5.03889 13.7553L5.85267 13.7283C5.83826 13.2971 5.83093 12.6528 5.83093 11.7923H5.01669ZM5.03903 13.7587C5.1 15.2167 5.49131 16.3709 6.28222 17.1422L6.85178 16.5624C6.26496 15.9902 5.90885 15.0707 5.85255 13.7249L5.03903 13.7587ZM6.28544 17.1453C7.06935 17.8932 8.13373 18.2437 9.42499 18.2437V17.4324C8.2833 17.4324 7.44235 17.1258 6.84857 16.5593L6.28544 17.1453ZM9.42499 18.2437C10.7329 18.2437 11.8219 17.8849 12.6465 17.1289L12.0952 16.5319C11.4543 17.1194 10.5793 17.4324 9.42499 17.4324V18.2437ZM12.6465 17.1289C13.4897 16.356 13.8773 15.2227 13.8773 13.8075H13.063C13.063 15.0794 12.7177 15.9613 12.0952 16.5319L12.6465 17.1289ZM13.8773 13.8075V12.8875H13.063V13.8075H13.8773ZM13.4701 12.4819H10.1725V13.2932H13.4701V12.4819ZM10.1725 12.4819C10.1142 12.4819 10.086 12.4672 10.0637 12.4481L9.53377 13.0641C9.71661 13.2202 9.93759 13.2932 10.1725 13.2932V12.4819ZM10.1078 12.4921C10.0949 12.477 10.0739 12.4452 10.0739 12.3618H9.2597C9.2597 12.5997 9.32671 12.8307 9.4896 13.0201L10.1078 12.4921ZM10.0739 12.3618V11.6608H9.2597V12.3618H10.0739ZM10.0739 11.6608C10.0739 11.6028 10.0887 11.5747 10.1078 11.5524L9.4896 11.0245C9.3329 11.2066 9.2597 11.4268 9.2597 11.6608H10.0739ZM10.0866 11.5753C10.112 11.55 10.1326 11.5408 10.1725 11.5408V10.7295C9.91915 10.7295 9.69063 10.8224 9.51085 11.0016L10.0866 11.5753ZM10.1725 11.5408H15.141V10.7295H10.1725V11.5408ZM15.141 11.5408C15.1662 11.5408 15.1754 11.545 15.1756 11.5451C15.1761 11.5453 15.1764 11.5454 15.177 11.5459C15.1776 11.5464 15.1799 11.5481 15.1836 11.5524L15.8018 11.0245C15.6294 10.8241 15.395 10.7295 15.141 10.7295V11.5408ZM15.2278 11.5965C15.2289 11.5974 15.2295 11.5981 15.2298 11.5984C15.2301 11.5987 15.2302 11.5989 15.2303 11.5989C15.2303 11.599 15.2304 11.5991 15.2306 11.5994C15.2308 11.5997 15.2311 11.6005 15.2317 11.6017C15.2335 11.6062 15.2395 11.6233 15.2395 11.6608H16.0537C16.0537 11.4069 15.968 11.1601 15.7577 10.9804L15.2278 11.5965ZM15.2395 11.6608V13.7637H16.0537V11.6608H15.2395ZM15.2395 13.7637C15.2395 14.9041 15.0026 15.8779 14.5435 16.6986L15.2547 17.0936C15.7923 16.1327 16.0537 15.0182 16.0537 13.7637H15.2395ZM14.5435 16.6986C14.0849 17.5185 13.4251 18.1576 12.5536 18.6189L12.9356 19.3353C13.9402 18.8036 14.7167 18.0553 15.2547 17.0936L14.5435 16.6986ZM12.5581 18.6166C11.6886 19.0632 10.6485 19.2943 9.42499 19.2943V20.1056C10.7516 20.1056 11.9247 19.8547 12.9312 19.3376L12.5581 18.6166ZM19.3766 18.5171L19.6208 18.1926L19.3766 18.5171ZM17.7057 15.0561H17.2986V15.0639L17.2989 15.0717L17.7057 15.0561ZM17.8376 14.7275L18.1256 15.0144L18.1366 15.0034L18.1468 14.9915L17.8376 14.7275ZM19.9481 15.078L20.3535 15.0402L20.3512 15.0158L20.346 14.9918L19.9481 15.078ZM25.928 16.7647L25.6131 16.5075L25.6126 16.5082L25.928 16.7647ZM26.8293 6.05316H27.2364V5.64752H26.8293V6.05316ZM18.6511 5.92173L18.342 6.18573L18.3624 6.20942L18.3861 6.22974L18.6511 5.92173ZM18.6511 4.30077L18.939 4.5876L18.6511 4.30077ZM28.8738 4.30077L28.5648 4.56476L28.5852 4.58845L28.6089 4.60878L28.8738 4.30077ZM27.5108 18.1228L27.2169 17.8421L27.2148 17.8443L27.5108 18.1228ZM23.3557 19.2943C21.8273 19.2943 20.5918 18.9181 19.6208 18.1926L19.1323 18.8416C20.2719 19.6932 21.6892 20.1056 23.3557 20.1056V19.2943ZM19.6208 18.1926C18.6797 17.4893 18.1673 16.4585 18.1126 15.0405L17.2989 15.0717C17.3614 16.6911 17.9629 17.9678 19.1323 18.8416L19.6208 18.1926ZM18.1129 15.0561C18.1129 15.0361 18.1161 15.0277 18.1167 15.026C18.1172 15.0248 18.1186 15.0213 18.1256 15.0144L17.5498 14.4407C17.3805 14.6094 17.2986 14.8243 17.2986 15.0561H18.1129ZM18.1468 14.9915C18.1505 14.9872 18.1527 14.9854 18.1534 14.985C18.154 14.9845 18.1543 14.9844 18.1547 14.9842C18.1549 14.9841 18.1642 14.9798 18.1894 14.9798V14.1685C17.9354 14.1685 17.7009 14.2631 17.5286 14.4635L18.1468 14.9915ZM18.1894 14.9798H19.3766V14.1685H18.1894V14.9798ZM19.3766 14.9798C19.453 14.9798 19.4746 14.9987 19.4806 15.004C19.4915 15.0136 19.5256 15.0509 19.5504 15.1642L20.346 14.9918C20.2974 14.7691 20.1997 14.5546 20.02 14.3963C19.8355 14.2336 19.608 14.1685 19.3766 14.1685V14.9798ZM19.5428 15.1159C19.6392 16.14 20.0417 16.9524 20.7873 17.488L21.2635 16.8299C20.7487 16.4601 20.433 15.8852 20.3535 15.0402L19.5428 15.1159ZM20.7873 17.488C21.5013 18.0009 22.3813 18.2437 23.3997 18.2437V17.4324C22.5129 17.4324 21.81 17.2225 21.2635 16.8299L20.7873 17.488ZM23.3997 18.2437C24.596 18.2437 25.5651 17.849 26.2433 17.0212L25.6126 16.5082C25.1183 17.1115 24.4019 17.4324 23.3997 17.4324V18.2437ZM26.2428 17.0219C26.9192 16.1999 27.2364 15.1215 27.2364 13.8294H26.4222C26.4222 14.9908 26.1385 15.8691 25.6131 16.5075L26.2428 17.0219ZM27.2364 13.8294V6.05316H26.4222V13.8294H27.2364ZM26.8293 5.64752H19.0248V6.45881H26.8293V5.64752ZM19.0248 5.64752C18.9666 5.64752 18.9384 5.63283 18.916 5.61373L18.3861 6.22974C18.569 6.38588 18.7899 6.45881 19.0248 6.45881V5.64752ZM18.9602 5.65774C18.9411 5.63547 18.9263 5.6074 18.9263 5.54935H18.112C18.112 5.78337 18.1852 6.00355 18.342 6.18573L18.9602 5.65774ZM18.9263 5.54935V4.65125H18.112V5.54935H18.9263ZM18.9263 4.65125C18.9263 4.61875 18.9312 4.60237 18.9334 4.59652C18.9351 4.59194 18.9364 4.59016 18.939 4.5876L18.3632 4.01393C18.1854 4.19108 18.112 4.41828 18.112 4.65125H18.9263ZM18.939 4.5876C18.9643 4.56233 18.985 4.55308 19.0248 4.55308V3.74179C18.7715 3.74179 18.543 3.83476 18.3632 4.01393L18.939 4.5876ZM19.0248 4.55308H28.5002V3.74179H19.0248V4.55308ZM28.5002 4.55308C28.5378 4.55308 28.555 4.55904 28.5595 4.56087C28.5607 4.56136 28.5614 4.56176 28.5618 4.56192C28.5621 4.56209 28.5622 4.56221 28.5623 4.56225C28.5623 4.56225 28.5625 4.56237 28.5628 4.56269C28.5631 4.56298 28.5638 4.56363 28.5648 4.56476L29.183 4.03677C29.0027 3.82717 28.755 3.74179 28.5002 3.74179V4.55308ZM28.6089 4.60878C28.61 4.60971 28.6107 4.6104 28.611 4.61072C28.6113 4.61105 28.6114 4.61121 28.6115 4.61125C28.6115 4.61129 28.6116 4.61141 28.6117 4.61174C28.6119 4.61206 28.6123 4.61279 28.6128 4.61401C28.6147 4.61847 28.6207 4.63563 28.6207 4.67315H29.4349C29.4349 4.41926 29.3492 4.17246 29.1388 3.99276L28.6089 4.60878ZM28.6207 4.67315V13.8732H29.4349V4.67315H28.6207ZM28.6207 13.8732C28.6207 15.5749 28.1401 16.8823 27.2169 17.8421L27.8048 18.4035C28.9042 17.2604 29.4349 15.7347 29.4349 13.8732H28.6207ZM27.2148 17.8443C26.3117 18.7971 25.0439 19.2943 23.3557 19.2943V20.1056C25.2145 20.1056 26.7167 19.5514 27.8068 18.4013L27.2148 17.8443ZM32.8484 19.3495L32.5393 19.6135L32.5597 19.6372L32.5835 19.6575L32.8484 19.3495ZM32.8484 4.30077L33.1363 4.5876L32.8484 4.30077ZM42.5437 5.3303L42.8038 5.01828L42.5437 5.3303ZM43.1373 11.4856L42.8152 11.237L42.8124 11.2412L43.1373 11.4856ZM40.8288 12.9751L40.7193 12.5845L40.2132 12.7253L40.4765 13.1784L40.8288 12.9751ZM44.2145 18.8018L44.5785 18.6204L44.5732 18.6093L44.5667 18.5986L44.2145 18.8018ZM44.1266 19.3495L43.8615 19.0415L43.8497 19.0516L43.8387 19.0626L44.1266 19.3495ZM42.2359 19.3276L41.9676 19.6329L41.9766 19.6406L41.9859 19.6478L42.2359 19.3276ZM41.9061 18.8895L42.2644 18.6972L42.262 18.6927L42.2595 18.6883L41.9061 18.8895ZM38.7183 13.3256L39.0718 13.1245L38.9547 12.92H38.7183V13.3256ZM34.871 13.3256V12.92H34.4639V13.3256H34.871ZM34.7171 19.3495L34.982 19.6575L34.9939 19.6473L35.005 19.6363L34.7171 19.3495ZM34.871 5.98745V5.5818H34.4639V5.98745H34.871ZM34.871 11.4637H34.4639V11.8693H34.871V11.4637ZM33.2222 19.0753C33.1639 19.0753 33.1357 19.0606 33.1134 19.0415L32.5835 19.6575C32.7663 19.8136 32.9873 19.8866 33.2222 19.8866V19.0753ZM33.1575 19.0855C33.1384 19.0632 33.1237 19.0351 33.1237 18.9771H32.3094C32.3094 19.2111 32.3826 19.4313 32.5393 19.6135L33.1575 19.0855ZM33.1237 18.9771V4.67315H32.3094V18.9771H33.1237ZM33.1237 4.67315C33.1237 4.62902 33.1298 4.60492 33.1334 4.59458C33.1364 4.58602 33.138 4.58594 33.1363 4.5876L32.5606 4.01393C32.3755 4.1983 32.3094 4.4382 32.3094 4.67315H33.1237ZM33.1363 4.5876C33.1617 4.56233 33.1823 4.55308 33.2222 4.55308V3.74179C32.9689 3.74179 32.7404 3.83476 32.5605 4.01393L33.1363 4.5876ZM33.2222 4.55308H38.5864V3.74179H33.2222V4.55308ZM38.5864 4.55308C40.2111 4.55308 41.4265 4.93297 42.2835 5.64232L42.8038 5.01828C41.7554 4.15047 40.3327 3.74179 38.5864 3.74179V4.55308ZM42.2835 5.64232C43.1238 6.33781 43.5656 7.35103 43.5656 8.74747H44.3798C44.3798 7.16484 43.8689 5.89991 42.8038 5.01828L42.2835 5.64232ZM43.5656 8.74747C43.5656 9.78816 43.3054 10.6074 42.8156 11.237L43.4589 11.7342C44.0826 10.9326 44.3798 9.92649 44.3798 8.74747H43.5656ZM42.8124 11.2412C42.3316 11.8754 41.6434 12.3272 40.7193 12.5845L40.9384 13.3658C42.0075 13.0682 42.858 12.5269 43.4621 11.73L42.8124 11.2412ZM40.4765 13.1784L43.8619 19.0051L44.5667 18.5986L41.1811 12.7719L40.4765 13.1784ZM43.8501 18.9833C43.8754 19.0329 43.8733 19.0505 43.8733 19.0428H44.6876C44.6876 18.8891 44.6416 18.746 44.5785 18.6204L43.8501 18.9833ZM43.8733 19.0428C43.8733 19.0422 43.8733 19.0395 43.8742 19.0355C43.8754 19.0315 43.8766 19.028 43.8778 19.0257C43.879 19.0234 43.879 19.0236 43.877 19.0261C43.875 19.0288 43.8701 19.034 43.8615 19.0415L44.3916 19.6575C44.5691 19.5058 44.6876 19.2967 44.6876 19.0428H43.8733ZM43.8387 19.0626C43.8326 19.0686 43.8286 19.0718 43.8261 19.0735C43.8237 19.075 43.8229 19.0753 43.8233 19.0752C43.8233 19.0751 43.8237 19.0751 43.8237 19.075C43.8241 19.0749 43.8241 19.0749 43.8241 19.0749C43.8241 19.0749 43.8224 19.0753 43.8188 19.0753V19.8866C44.0508 19.8866 44.2552 19.7949 44.4144 19.6363L43.8387 19.0626ZM43.8188 19.0753H42.7635V19.8866H43.8188V19.0753ZM42.7635 19.0753C42.6056 19.0753 42.5266 19.0389 42.4859 19.0073L41.9859 19.6478C42.209 19.8206 42.4818 19.8866 42.7635 19.8866V19.0753ZM42.5038 19.0223C42.4346 18.9618 42.3523 18.8597 42.2644 18.6972L41.5476 19.0818C41.665 19.299 41.8027 19.4889 41.9676 19.6329L42.5038 19.0223ZM42.2595 18.6883L39.0718 13.1245L38.3647 13.5267L41.5525 19.0906L42.2595 18.6883ZM38.7183 12.92H34.871V13.7313H38.7183V12.92ZM34.4639 13.3256V18.9771H35.2781V13.3256H34.4639ZM34.4639 18.9771C34.4639 19.0168 34.4546 19.0374 34.4293 19.0626L35.005 19.6363C35.1848 19.4571 35.2781 19.2295 35.2781 18.9771H34.4639ZM34.4522 19.0415C34.4298 19.0606 34.4016 19.0753 34.3434 19.0753V19.8866C34.5783 19.8866 34.7992 19.8136 34.982 19.6575L34.4522 19.0415ZM34.3434 19.0753H33.2222V19.8866H34.3434V19.0753ZM38.4985 11.8693C39.6374 11.8693 40.5674 11.6328 41.2169 11.0899C41.8801 10.5356 42.1813 9.72131 42.1813 8.72557H41.367C41.367 9.55524 41.1223 10.11 40.6935 10.4684C40.2511 10.8382 39.5433 11.058 38.4985 11.058V11.8693ZM42.1813 8.72557C42.1813 7.72979 41.8801 6.91553 41.2169 6.36121C40.5674 5.81833 39.6374 5.5818 38.4985 5.5818V6.3931C39.5433 6.3931 40.2511 6.61292 40.6935 6.98275C41.1223 7.34113 41.367 7.8959 41.367 8.72557H42.1813ZM38.4985 5.5818H34.871V6.3931H38.4985V5.5818ZM34.4639 5.98745V11.4637H35.2781V5.98745H34.4639ZM34.871 11.8693H38.4985V11.058H34.871V11.8693ZM48.1782 18.2104L47.8945 18.5013L47.8965 18.5033L47.8985 18.5053L48.1782 18.2104ZM46.5294 13.6761L46.9361 13.6643V13.6626L46.5294 13.6761ZM46.5294 9.97415L46.9361 9.98815V9.98616L46.5294 9.97415ZM48.2442 5.48363L48.5239 5.77834L48.5259 5.77635L48.2442 5.48363ZM57.016 5.48363L56.7339 5.77635L56.7363 5.77834L57.016 5.48363ZM58.7308 9.97415L58.3237 9.98616V9.98815L58.7308 9.97415ZM58.7308 13.6761L58.3237 13.6626V13.6643L58.7308 13.6761ZM57.06 18.2104L57.3413 18.5034L57.3417 18.5033L57.06 18.2104ZM55.4111 16.7866L55.7018 17.0704L55.4111 16.7866ZM56.5323 13.5666L56.939 13.583V13.5801L56.5323 13.5666ZM56.5323 10.0618L56.939 10.0478V10.0454L56.5323 10.0618ZM55.3891 6.84174L55.098 7.12557L55.1013 7.12858L55.3891 6.84174ZM49.849 6.84174L49.5612 6.55491L49.558 6.55795L49.849 6.84174ZM48.7278 10.0618L48.3211 10.0454L48.3207 10.0478L48.7278 10.0618ZM48.7278 13.5666L48.3207 13.5801L48.3211 13.583L48.7278 13.5666ZM49.849 16.7866L49.558 17.0704L49.5612 17.0734L49.849 16.7866ZM52.6411 19.2943C50.7903 19.2943 49.4155 18.8169 48.4575 17.9155L47.8985 18.5053C49.0511 19.59 50.6515 20.1056 52.6411 20.1056V19.2943ZM48.462 17.9195C47.5228 17.0103 46.9931 15.6162 46.9361 13.6643L46.1223 13.6879C46.1829 15.7665 46.7521 17.3953 47.8945 18.5013L48.462 17.9195ZM46.9361 13.6626C46.9219 13.2313 46.9145 12.6159 46.9145 11.8142H46.1003C46.1003 12.6188 46.1076 13.2447 46.1223 13.6896L46.9361 13.6626ZM46.9145 11.8142C46.9145 11.0123 46.9219 10.4045 46.9361 9.98815L46.1223 9.96016C46.1076 10.3908 46.1003 11.0096 46.1003 11.8142H46.9145ZM46.9361 9.98616C46.9927 8.08582 47.5407 6.7052 48.5239 5.77834L47.9645 5.18893C46.7785 6.30653 46.1829 7.91959 46.1223 9.96214L46.9361 9.98616ZM48.5259 5.77635C49.5181 4.82774 50.8742 4.33403 52.6411 4.33403V3.52274C50.7146 3.52274 49.139 4.06582 47.962 5.19092L48.5259 5.77635ZM52.6411 4.33403C54.3925 4.33403 55.7413 4.82718 56.7339 5.77635L57.2977 5.19092C56.1215 4.06642 54.5537 3.52274 52.6411 3.52274V4.33403ZM56.7363 5.77834C57.7195 6.7052 58.2671 8.08582 58.3237 9.98616L59.1375 9.96214C59.0768 7.91959 58.4816 6.30653 57.2957 5.18893L56.7363 5.77834ZM58.3237 9.98815C58.353 10.8347 58.3676 11.442 58.3676 11.8142H59.1819C59.1819 11.4269 59.1668 10.8076 59.1375 9.96016L58.3237 9.98815ZM58.3676 11.8142C58.3676 12.1718 58.353 12.7864 58.3237 13.6626L59.1375 13.6896C59.1668 12.8134 59.1819 12.1867 59.1819 11.8142H58.3676ZM58.3237 13.6643C58.2671 15.6148 57.7305 17.0081 56.7782 17.9175L57.3417 18.5033C58.4995 17.3975 59.0772 15.7679 59.1375 13.6879L58.3237 13.6643ZM56.7782 17.9175C55.8353 18.8173 54.4764 19.2943 52.6411 19.2943V20.1056C54.6164 20.1056 56.2034 19.5896 57.3413 18.5034L56.7782 17.9175ZM52.6411 18.2437C53.8877 18.2437 54.923 17.8629 55.7018 17.0704L55.12 16.5028C54.5212 17.1122 53.7102 17.4324 52.6411 17.4324V18.2437ZM55.7018 17.0704C56.4884 16.2701 56.8784 15.0823 56.939 13.583L56.1256 13.5502C56.069 14.9423 55.7116 15.9011 55.12 16.5028L55.7018 17.0704ZM56.939 13.5801C56.9684 12.705 56.9834 12.1141 56.9834 11.8142H56.1692C56.1692 12.0984 56.1545 12.6757 56.1252 13.5531L56.939 13.5801ZM56.9834 11.8142C56.9834 11.485 56.9684 10.8943 56.939 10.0478L56.1252 10.0758C56.1545 10.9232 56.1692 11.5008 56.1692 11.8142H56.9834ZM56.939 10.0454C56.878 8.54404 56.4798 7.35505 55.677 6.55491L55.1013 7.12858C55.7051 7.73035 56.069 8.68805 56.1256 10.0782L56.939 10.0454ZM55.6798 6.55795C54.9022 5.76641 53.8747 5.38466 52.6411 5.38466V6.19595C53.6939 6.19595 54.4984 6.51516 55.098 7.12553L55.6798 6.55795ZM52.6411 5.38466C51.3945 5.38466 50.3535 5.7654 49.5612 6.55491L50.1369 7.12858C50.7516 6.51617 51.572 6.19595 52.6411 6.19595V5.38466ZM49.558 6.55795C48.7718 7.35821 48.3818 8.54603 48.3211 10.0454L49.1346 10.0782C49.1911 8.68606 49.5486 7.72719 50.1397 7.12553L49.558 6.55795ZM48.3207 10.0478C48.3061 10.4782 48.2987 11.0677 48.2987 11.8142H49.113C49.113 11.0711 49.1203 10.4924 49.1346 10.0758L48.3207 10.0478ZM48.2987 11.8142C48.2987 12.5463 48.3061 13.1355 48.3207 13.5801L49.1346 13.5531C49.1203 13.1214 49.113 12.5423 49.113 11.8142H48.2987ZM48.3211 13.583C48.3818 15.0823 48.7718 16.2701 49.558 17.0704L50.1397 16.5028C49.5486 15.9011 49.1911 14.9423 49.1346 13.5502L48.3211 13.583ZM49.5612 17.0734C50.3535 17.8629 51.3945 18.2437 52.6411 18.2437V17.4324C51.572 17.4324 50.7516 17.1122 50.1369 16.4998L49.5612 17.0734Z" fill="#003300"/>
</g>
<g filter="url(#filter1_d)">
<path d="M9.42522 19.6999C7.50524 19.6999 6.01029 19.1815 4.94038 18.1447C3.88512 17.0933 3.32085 15.6621 3.24757 13.8513C3.23291 13.4132 3.22559 12.7269 3.22559 11.7923C3.22559 10.843 3.23291 10.1567 3.24757 9.73319C3.32085 7.93698 3.89245 6.52046 4.96236 5.48363C6.03228 4.44679 7.51989 3.92838 9.42522 3.92838C10.715 3.92838 11.8069 4.16203 12.7009 4.62933C13.6096 5.08204 14.2911 5.63696 14.7455 6.29411C15.1998 6.95126 15.4416 7.5646 15.471 8.13413V8.17794C15.471 8.29476 15.427 8.38968 15.339 8.4627C15.2511 8.53572 15.1412 8.57223 15.0093 8.57223H13.7122C13.5656 8.57223 13.4557 8.55032 13.3824 8.50651C13.3238 8.4481 13.2652 8.33857 13.2065 8.17794C12.9867 7.52079 12.5617 6.95856 11.9314 6.49126C11.3159 6.02395 10.4805 5.7903 9.42522 5.7903C8.20874 5.7903 7.25608 6.11887 6.56723 6.77602C5.87839 7.43317 5.50465 8.4554 5.44602 9.84271C5.43137 10.2662 5.42404 10.9161 5.42404 11.7923C5.42404 12.6538 5.43137 13.3037 5.44602 13.7418C5.50465 15.1437 5.87839 16.1805 6.56723 16.8523C7.25608 17.5094 8.20874 17.838 9.42522 17.838C10.6563 17.838 11.6383 17.5021 12.3711 16.8304C13.104 16.1586 13.4704 15.151 13.4704 13.8075V12.8875H10.1727C10.0261 12.8875 9.90155 12.8437 9.79895 12.7561C9.71101 12.6539 9.66705 12.5224 9.66705 12.3618V11.6608C9.66705 11.5148 9.71101 11.3907 9.79895 11.2884C9.90155 11.1862 10.0261 11.1351 10.1727 11.1351H15.1412C15.2877 11.1351 15.405 11.1862 15.4929 11.2884C15.5955 11.3761 15.6468 11.5002 15.6468 11.6608V13.7637C15.6468 14.9612 15.3977 16.0053 14.8994 16.8961C14.401 17.7869 13.6829 18.4806 12.7449 18.9771C11.8069 19.459 10.7003 19.6999 9.42522 19.6999ZM23.356 19.6999C21.7584 19.6999 20.432 19.3057 19.3768 18.5171C18.3215 17.7285 17.7646 16.5748 17.706 15.0561C17.706 14.9247 17.7499 14.8151 17.8379 14.7275C17.9258 14.6253 18.0431 14.5742 18.1896 14.5742H19.3768C19.6846 14.5742 19.8751 14.7421 19.9484 15.078C20.0363 16.0126 20.3954 16.7063 21.0256 17.159C21.6558 17.6117 22.4473 17.838 23.3999 17.838C24.4992 17.838 25.3419 17.4802 25.9282 16.7647C26.5291 16.0345 26.8295 15.0561 26.8295 13.8294V6.05316H19.025C18.8785 6.05316 18.7539 6.00935 18.6513 5.92173C18.5634 5.8195 18.5194 5.69538 18.5194 5.54934V4.65124C18.5194 4.50521 18.5634 4.38838 18.6513 4.30076C18.7539 4.19854 18.8785 4.14742 19.025 4.14742H28.5004C28.6616 4.14742 28.7861 4.19854 28.8741 4.30076C28.9767 4.38838 29.028 4.51251 29.028 4.67314V13.8732C29.028 15.6548 28.5224 17.0714 27.511 18.1228C26.5144 19.1742 25.1294 19.6999 23.356 19.6999ZM33.2224 19.4809C33.0758 19.4809 32.9513 19.4371 32.8487 19.3495C32.7607 19.2472 32.7168 19.1231 32.7168 18.9771V4.67314C32.7168 4.51251 32.7607 4.38838 32.8487 4.30076C32.9513 4.19854 33.0758 4.14742 33.2224 4.14742H38.5866C40.2721 4.14742 41.5912 4.54171 42.5439 5.33029C43.4966 6.11887 43.9729 7.25793 43.9729 8.74747C43.9729 9.85732 43.6944 10.77 43.1375 11.4856C42.5952 12.2011 41.8258 12.6977 40.829 12.9751L44.2147 18.8018C44.2587 18.8895 44.2807 18.9698 44.2807 19.0428C44.2807 19.1596 44.2294 19.2618 44.1268 19.3495C44.0389 19.4371 43.9363 19.4809 43.819 19.4809H42.7638C42.5439 19.4809 42.368 19.4298 42.2361 19.3276C42.1189 19.2253 42.009 19.0793 41.9064 18.8895L38.7185 13.3256H34.8712V18.9771C34.8712 19.1231 34.82 19.2472 34.7174 19.3495C34.6148 19.4371 34.4902 19.4809 34.3436 19.4809H33.2224ZM38.4987 11.4637C40.6825 11.4637 41.7744 10.551 41.7744 8.72556C41.7744 6.90015 40.6825 5.98744 38.4987 5.98744H34.8712V11.4637H38.4987ZM52.6413 19.6999C50.7213 19.6999 49.2337 19.2034 48.1785 18.2104C47.1379 17.2028 46.5882 15.6913 46.5296 13.6761C46.515 13.238 46.5076 12.6173 46.5076 11.8142C46.5076 11.011 46.515 10.3976 46.5296 9.97414C46.5882 8.0027 47.1598 6.50586 48.2444 5.48363C49.329 4.44679 50.7946 3.92838 52.6413 3.92838C54.4734 3.92838 55.9317 4.44679 57.0162 5.48363C58.1008 6.50586 58.6724 8.0027 58.731 9.97414C58.7603 10.8211 58.775 11.4345 58.775 11.8142C58.775 12.1792 58.7603 12.7999 58.731 13.6761C58.6724 15.6913 58.1154 17.2028 57.0602 18.2104C56.0196 19.2034 54.5466 19.6999 52.6413 19.6999ZM52.6413 17.838C53.7992 17.838 54.7225 17.4875 55.4114 16.7866C56.1002 16.0856 56.4739 15.0123 56.5326 13.5666C56.5619 12.6904 56.5765 12.1062 56.5765 11.8142C56.5765 11.4929 56.5619 10.9088 56.5326 10.0618C56.4739 8.61604 56.0929 7.54269 55.3894 6.84173C54.7005 6.14078 53.7845 5.7903 52.6413 5.7903C51.4835 5.7903 50.5528 6.14078 49.8493 6.84173C49.1604 7.54269 48.7867 8.61604 48.7281 10.0618C48.7134 10.4853 48.7061 11.0694 48.7061 11.8142C48.7061 12.5443 48.7134 13.1285 48.7281 13.5666C48.7867 15.0123 49.1604 16.0856 49.8493 16.7866C50.5528 17.4875 51.4835 17.838 52.6413 17.838Z" fill="#09CE35"/>
<path d="M4.94015 18.1447L4.65224 18.4316L4.6563 18.4355L4.94015 18.1447ZM3.24734 13.8513L2.84044 13.8648L2.84055 13.8677L3.24734 13.8513ZM3.24734 9.7332L2.84055 9.71673L2.84046 9.7192L3.24734 9.7332ZM4.96213 5.48364L4.67828 5.19283L4.96213 5.48364ZM12.7007 4.62934L12.5115 4.98854L12.5151 4.99041L12.5186 4.99215L12.7007 4.62934ZM14.7452 6.29412L15.0805 6.06399L14.7452 6.29412ZM15.4707 8.13413H15.8778V8.12375L15.8773 8.11337L15.4707 8.13413ZM15.3388 8.46271L15.0782 8.15109L15.3388 8.46271ZM13.3822 8.50652L13.0943 8.79335L13.1297 8.82868L13.1727 8.85436L13.3822 8.50652ZM13.2063 8.17794L12.8201 8.30621L12.8218 8.3114L12.8237 8.31655L13.2063 8.17794ZM11.9312 6.49126L11.6845 6.81396L11.6882 6.81667L11.9312 6.49126ZM6.567 6.77603L6.28544 6.48303L6.567 6.77603ZM5.4458 9.84272L5.03902 9.82564L5.03891 9.82873L5.4458 9.84272ZM5.4458 13.7418L5.03888 13.7553L5.03903 13.7587L5.4458 13.7418ZM6.567 16.8523L6.28222 17.1422L6.28544 17.1453L6.567 16.8523ZM12.3709 16.8304L12.0952 16.5319L12.3709 16.8304ZM13.4701 12.8875H13.8773V12.4819H13.4701V12.8875ZM9.79872 12.7561L9.4896 13.0201L9.50999 13.0438L9.53377 13.0641L9.79872 12.7561ZM9.79872 11.2884L9.51085 11.0016L9.49977 11.0126L9.4896 11.0245L9.79872 11.2884ZM15.4927 11.2884L15.1836 11.5524L15.204 11.5761L15.2278 11.5965L15.4927 11.2884ZM14.8991 16.8961L14.5435 16.6986L14.8991 16.8961ZM12.7446 18.9771L12.9312 19.3377L12.9356 19.3353L12.7446 18.9771ZM9.42499 19.2943C7.57939 19.2943 6.19791 18.7977 5.224 17.8539L4.6563 18.4355C5.82222 19.5654 7.43063 20.1056 9.42499 20.1056V19.2943ZM5.22803 17.8579C4.26019 16.8935 3.72424 15.5674 3.65413 13.835L2.84055 13.8677C2.917 15.7569 3.50959 17.293 4.65227 18.4315L5.22803 17.8579ZM3.65423 13.8378C3.63982 13.4069 3.63248 12.7262 3.63248 11.7923H2.81824C2.81824 12.7275 2.82555 13.4196 2.84045 13.8648L3.65423 13.8378ZM3.63248 11.7923C3.63248 10.8435 3.63983 10.1631 3.65422 9.74719L2.84046 9.7192C2.82555 10.1502 2.81824 10.8426 2.81824 11.7923H3.63248ZM3.65412 9.74967C3.72411 8.03426 4.26581 6.72431 5.24598 5.77444L4.67828 5.19283C3.51863 6.31663 2.91713 7.83972 2.84056 9.71673L3.65412 9.74967ZM5.24598 5.77444C6.22046 4.8301 7.59506 4.33403 9.42499 4.33403V3.52274C7.44427 3.52274 5.84363 4.0635 4.67828 5.19283L5.24598 5.77444ZM9.42499 4.33403C10.6667 4.33403 11.6898 4.55904 12.5115 4.98854L12.8898 4.27014C11.9235 3.76503 10.7628 3.52274 9.42499 3.52274V4.33403ZM12.5186 4.99215C13.382 5.4223 14.0037 5.9367 14.41 6.52424L15.0805 6.06399C14.578 5.33724 13.8367 4.74179 12.8827 4.26653L12.5186 4.99215ZM14.41 6.52424C14.8379 7.14314 15.0399 7.68464 15.0641 8.1549L15.8773 8.11337C15.8429 7.44458 15.5613 6.7594 15.0805 6.06399L14.41 6.52424ZM15.0636 8.13413V8.17794H15.8778V8.13413H15.0636ZM15.0636 8.17794C15.0636 8.18172 15.0632 8.18192 15.0638 8.17928C15.0644 8.17648 15.0656 8.17206 15.0681 8.16675C15.0706 8.16148 15.0734 8.15705 15.0759 8.15385C15.0783 8.15073 15.0796 8.14991 15.0782 8.15109L15.5995 8.77433C15.7828 8.62213 15.8778 8.4118 15.8778 8.17794H15.0636ZM15.0782 8.15109C15.0743 8.15425 15.061 8.16659 15.009 8.16659V8.97788C15.2209 8.97788 15.4274 8.9172 15.5995 8.77433L15.0782 8.15109ZM15.009 8.16659H13.712V8.97788H15.009V8.16659ZM13.712 8.16659C13.6578 8.16659 13.6215 8.16245 13.5994 8.15803C13.5768 8.15353 13.578 8.15052 13.5917 8.15868L13.1727 8.85436C13.3398 8.95423 13.538 8.97788 13.712 8.97788V8.16659ZM13.6701 8.21969C13.6796 8.22918 13.6724 8.225 13.6535 8.18967C13.6358 8.15669 13.6139 8.10785 13.5889 8.03934L12.8237 8.31655C12.8855 8.48583 12.9686 8.66809 13.0943 8.79335L13.6701 8.21969ZM13.5926 8.04968C13.343 7.30373 12.8623 6.67604 12.1743 6.16585L11.6882 6.81667C12.2605 7.2411 12.63 7.73786 12.8201 8.30621L13.5926 8.04968ZM12.1779 6.16861C11.4697 5.63089 10.5374 5.38466 9.42499 5.38466V6.19595C10.4231 6.19595 11.1616 6.41703 11.6845 6.81391L12.1779 6.16861ZM9.42499 5.38466C8.13373 5.38466 7.06935 5.73518 6.28544 6.48303L6.84857 7.06903C7.44235 6.50258 8.2833 6.19595 9.42499 6.19595V5.38466ZM6.28544 6.48303C5.49188 7.24009 5.10005 8.38162 5.03903 9.82564L5.85255 9.8598C5.90877 8.5292 6.26443 7.62626 6.84857 7.06903L6.28544 6.48303ZM5.03891 9.82873C5.024 10.2596 5.01669 10.9152 5.01669 11.7923H5.83093C5.83093 10.9169 5.83826 10.2729 5.85267 9.85672L5.03891 9.82873ZM5.01669 11.7923C5.01669 12.655 5.02401 13.3103 5.03889 13.7553L5.85267 13.7283C5.83826 13.2971 5.83093 12.6528 5.83093 11.7923H5.01669ZM5.03903 13.7587C5.1 15.2167 5.49131 16.3709 6.28222 17.1422L6.85178 16.5624C6.26496 15.9902 5.90885 15.0707 5.85255 13.7249L5.03903 13.7587ZM6.28544 17.1453C7.06935 17.8932 8.13373 18.2437 9.42499 18.2437V17.4324C8.2833 17.4324 7.44235 17.1258 6.84857 16.5593L6.28544 17.1453ZM9.42499 18.2437C10.7329 18.2437 11.8219 17.8849 12.6465 17.1289L12.0952 16.5319C11.4543 17.1194 10.5793 17.4324 9.42499 17.4324V18.2437ZM12.6465 17.1289C13.4897 16.356 13.8773 15.2227 13.8773 13.8075H13.063C13.063 15.0794 12.7177 15.9613 12.0952 16.5319L12.6465 17.1289ZM13.8773 13.8075V12.8875H13.063V13.8075H13.8773ZM13.4701 12.4819H10.1725V13.2932H13.4701V12.4819ZM10.1725 12.4819C10.1142 12.4819 10.086 12.4672 10.0637 12.4481L9.53377 13.0641C9.71661 13.2202 9.93759 13.2932 10.1725 13.2932V12.4819ZM10.1078 12.4921C10.0949 12.477 10.0739 12.4452 10.0739 12.3618H9.2597C9.2597 12.5997 9.32671 12.8307 9.4896 13.0201L10.1078 12.4921ZM10.0739 12.3618V11.6608H9.2597V12.3618H10.0739ZM10.0739 11.6608C10.0739 11.6028 10.0887 11.5747 10.1078 11.5524L9.4896 11.0245C9.3329 11.2066 9.2597 11.4268 9.2597 11.6608H10.0739ZM10.0866 11.5753C10.112 11.55 10.1326 11.5408 10.1725 11.5408V10.7295C9.91915 10.7295 9.69063 10.8224 9.51085 11.0016L10.0866 11.5753ZM10.1725 11.5408H15.141V10.7295H10.1725V11.5408ZM15.141 11.5408C15.1662 11.5408 15.1754 11.545 15.1756 11.5451C15.1761 11.5453 15.1764 11.5454 15.177 11.5459C15.1776 11.5464 15.1799 11.5481 15.1836 11.5524L15.8018 11.0245C15.6294 10.8241 15.395 10.7295 15.141 10.7295V11.5408ZM15.2278 11.5965C15.2289 11.5974 15.2295 11.5981 15.2298 11.5984C15.2301 11.5987 15.2302 11.5989 15.2303 11.5989C15.2303 11.599 15.2304 11.5991 15.2306 11.5994C15.2308 11.5997 15.2311 11.6005 15.2317 11.6017C15.2335 11.6062 15.2395 11.6233 15.2395 11.6608H16.0537C16.0537 11.4069 15.968 11.1601 15.7577 10.9804L15.2278 11.5965ZM15.2395 11.6608V13.7637H16.0537V11.6608H15.2395ZM15.2395 13.7637C15.2395 14.9041 15.0026 15.8779 14.5435 16.6986L15.2547 17.0936C15.7923 16.1327 16.0537 15.0182 16.0537 13.7637H15.2395ZM14.5435 16.6986C14.0849 17.5185 13.4251 18.1576 12.5536 18.6189L12.9356 19.3353C13.9402 18.8036 14.7167 18.0553 15.2547 17.0936L14.5435 16.6986ZM12.5581 18.6166C11.6886 19.0632 10.6485 19.2943 9.42499 19.2943V20.1056C10.7516 20.1056 11.9247 19.8547 12.9312 19.3376L12.5581 18.6166ZM19.3766 18.5171L19.6208 18.1926L19.3766 18.5171ZM17.7057 15.0561H17.2986V15.0639L17.2989 15.0717L17.7057 15.0561ZM17.8376 14.7275L18.1256 15.0144L18.1366 15.0034L18.1468 14.9915L17.8376 14.7275ZM19.9481 15.078L20.3535 15.0402L20.3512 15.0158L20.346 14.9918L19.9481 15.078ZM25.928 16.7647L25.6131 16.5075L25.6126 16.5082L25.928 16.7647ZM26.8293 6.05316H27.2364V5.64752H26.8293V6.05316ZM18.6511 5.92173L18.342 6.18573L18.3624 6.20942L18.3861 6.22974L18.6511 5.92173ZM18.6511 4.30077L18.939 4.5876L18.6511 4.30077ZM28.8738 4.30077L28.5648 4.56476L28.5852 4.58845L28.6089 4.60878L28.8738 4.30077ZM27.5108 18.1228L27.2169 17.8421L27.2148 17.8443L27.5108 18.1228ZM23.3557 19.2943C21.8273 19.2943 20.5918 18.9181 19.6208 18.1926L19.1323 18.8416C20.2719 19.6932 21.6892 20.1056 23.3557 20.1056V19.2943ZM19.6208 18.1926C18.6797 17.4893 18.1673 16.4585 18.1126 15.0405L17.2989 15.0717C17.3614 16.6911 17.9629 17.9678 19.1323 18.8416L19.6208 18.1926ZM18.1129 15.0561C18.1129 15.0361 18.1161 15.0277 18.1167 15.026C18.1172 15.0248 18.1186 15.0213 18.1256 15.0144L17.5498 14.4407C17.3805 14.6094 17.2986 14.8243 17.2986 15.0561H18.1129ZM18.1468 14.9915C18.1505 14.9872 18.1527 14.9854 18.1534 14.985C18.154 14.9845 18.1543 14.9844 18.1547 14.9842C18.1549 14.9841 18.1642 14.9798 18.1894 14.9798V14.1685C17.9354 14.1685 17.7009 14.2631 17.5286 14.4635L18.1468 14.9915ZM18.1894 14.9798H19.3766V14.1685H18.1894V14.9798ZM19.3766 14.9798C19.453 14.9798 19.4746 14.9987 19.4806 15.004C19.4915 15.0136 19.5256 15.0509 19.5504 15.1642L20.346 14.9918C20.2974 14.7691 20.1997 14.5546 20.02 14.3963C19.8355 14.2336 19.608 14.1685 19.3766 14.1685V14.9798ZM19.5428 15.1159C19.6392 16.14 20.0417 16.9524 20.7873 17.488L21.2635 16.8299C20.7487 16.4601 20.433 15.8852 20.3535 15.0402L19.5428 15.1159ZM20.7873 17.488C21.5013 18.0009 22.3813 18.2437 23.3997 18.2437V17.4324C22.5129 17.4324 21.81 17.2225 21.2635 16.8299L20.7873 17.488ZM23.3997 18.2437C24.596 18.2437 25.5651 17.849 26.2433 17.0212L25.6126 16.5082C25.1183 17.1115 24.4019 17.4324 23.3997 17.4324V18.2437ZM26.2428 17.0219C26.9192 16.1999 27.2364 15.1215 27.2364 13.8294H26.4222C26.4222 14.9908 26.1385 15.8691 25.6131 16.5075L26.2428 17.0219ZM27.2364 13.8294V6.05316H26.4222V13.8294H27.2364ZM26.8293 5.64752H19.0248V6.45881H26.8293V5.64752ZM19.0248 5.64752C18.9666 5.64752 18.9384 5.63283 18.916 5.61373L18.3861 6.22974C18.569 6.38588 18.7899 6.45881 19.0248 6.45881V5.64752ZM18.9602 5.65774C18.9411 5.63547 18.9263 5.6074 18.9263 5.54935H18.112C18.112 5.78337 18.1852 6.00355 18.342 6.18573L18.9602 5.65774ZM18.9263 5.54935V4.65125H18.112V5.54935H18.9263ZM18.9263 4.65125C18.9263 4.61875 18.9312 4.60237 18.9334 4.59652C18.9351 4.59194 18.9364 4.59016 18.939 4.5876L18.3632 4.01393C18.1854 4.19108 18.112 4.41828 18.112 4.65125H18.9263ZM18.939 4.5876C18.9643 4.56233 18.985 4.55308 19.0248 4.55308V3.74179C18.7715 3.74179 18.543 3.83476 18.3632 4.01393L18.939 4.5876ZM19.0248 4.55308H28.5002V3.74179H19.0248V4.55308ZM28.5002 4.55308C28.5378 4.55308 28.555 4.55904 28.5595 4.56087C28.5607 4.56136 28.5614 4.56176 28.5618 4.56192C28.5621 4.56209 28.5622 4.56221 28.5623 4.56225C28.5623 4.56225 28.5625 4.56237 28.5628 4.56269C28.5631 4.56298 28.5638 4.56363 28.5648 4.56476L29.183 4.03677C29.0027 3.82717 28.755 3.74179 28.5002 3.74179V4.55308ZM28.6089 4.60878C28.61 4.60971 28.6107 4.6104 28.611 4.61072C28.6113 4.61105 28.6114 4.61121 28.6115 4.61125C28.6115 4.61129 28.6116 4.61141 28.6117 4.61174C28.6119 4.61206 28.6123 4.61279 28.6128 4.61401C28.6147 4.61847 28.6207 4.63563 28.6207 4.67315H29.4349C29.4349 4.41926 29.3492 4.17246 29.1388 3.99276L28.6089 4.60878ZM28.6207 4.67315V13.8732H29.4349V4.67315H28.6207ZM28.6207 13.8732C28.6207 15.5749 28.1401 16.8823 27.2169 17.8421L27.8048 18.4035C28.9042 17.2604 29.4349 15.7347 29.4349 13.8732H28.6207ZM27.2148 17.8443C26.3117 18.7971 25.0439 19.2943 23.3557 19.2943V20.1056C25.2145 20.1056 26.7167 19.5514 27.8068 18.4013L27.2148 17.8443ZM32.8484 19.3495L32.5393 19.6135L32.5597 19.6372L32.5835 19.6575L32.8484 19.3495ZM32.8484 4.30077L33.1363 4.5876L32.8484 4.30077ZM42.5437 5.3303L42.8038 5.01828L42.5437 5.3303ZM43.1373 11.4856L42.8152 11.237L42.8124 11.2412L43.1373 11.4856ZM40.8288 12.9751L40.7193 12.5845L40.2132 12.7253L40.4765 13.1784L40.8288 12.9751ZM44.2145 18.8018L44.5785 18.6204L44.5732 18.6093L44.5667 18.5986L44.2145 18.8018ZM44.1266 19.3495L43.8615 19.0415L43.8497 19.0516L43.8387 19.0626L44.1266 19.3495ZM42.2359 19.3276L41.9676 19.6329L41.9766 19.6406L41.9859 19.6478L42.2359 19.3276ZM41.9061 18.8895L42.2644 18.6972L42.262 18.6927L42.2595 18.6883L41.9061 18.8895ZM38.7183 13.3256L39.0718 13.1245L38.9547 12.92H38.7183V13.3256ZM34.871 13.3256V12.92H34.4639V13.3256H34.871ZM34.7171 19.3495L34.982 19.6575L34.9939 19.6473L35.005 19.6363L34.7171 19.3495ZM34.871 5.98745V5.5818H34.4639V5.98745H34.871ZM34.871 11.4637H34.4639V11.8693H34.871V11.4637ZM33.2222 19.0753C33.1639 19.0753 33.1357 19.0606 33.1134 19.0415L32.5835 19.6575C32.7663 19.8136 32.9873 19.8866 33.2222 19.8866V19.0753ZM33.1575 19.0855C33.1384 19.0632 33.1237 19.0351 33.1237 18.9771H32.3094C32.3094 19.2111 32.3826 19.4313 32.5393 19.6135L33.1575 19.0855ZM33.1237 18.9771V4.67315H32.3094V18.9771H33.1237ZM33.1237 4.67315C33.1237 4.62902 33.1298 4.60492 33.1334 4.59458C33.1364 4.58602 33.138 4.58594 33.1363 4.5876L32.5606 4.01393C32.3755 4.1983 32.3094 4.4382 32.3094 4.67315H33.1237ZM33.1363 4.5876C33.1617 4.56233 33.1823 4.55308 33.2222 4.55308V3.74179C32.9689 3.74179 32.7404 3.83476 32.5605 4.01393L33.1363 4.5876ZM33.2222 4.55308H38.5864V3.74179H33.2222V4.55308ZM38.5864 4.55308C40.2111 4.55308 41.4265 4.93297 42.2835 5.64232L42.8038 5.01828C41.7554 4.15047 40.3327 3.74179 38.5864 3.74179V4.55308ZM42.2835 5.64232C43.1238 6.33781 43.5656 7.35103 43.5656 8.74747H44.3798C44.3798 7.16484 43.8689 5.89991 42.8038 5.01828L42.2835 5.64232ZM43.5656 8.74747C43.5656 9.78816 43.3054 10.6074 42.8156 11.237L43.4589 11.7342C44.0826 10.9326 44.3798 9.92649 44.3798 8.74747H43.5656ZM42.8124 11.2412C42.3316 11.8754 41.6434 12.3272 40.7193 12.5845L40.9384 13.3658C42.0075 13.0682 42.858 12.5269 43.4621 11.73L42.8124 11.2412ZM40.4765 13.1784L43.8619 19.0051L44.5667 18.5986L41.1811 12.7719L40.4765 13.1784ZM43.8501 18.9833C43.8754 19.0329 43.8733 19.0505 43.8733 19.0428H44.6876C44.6876 18.8891 44.6416 18.746 44.5785 18.6204L43.8501 18.9833ZM43.8733 19.0428C43.8733 19.0422 43.8733 19.0395 43.8742 19.0355C43.8754 19.0315 43.8766 19.028 43.8778 19.0257C43.879 19.0234 43.879 19.0236 43.877 19.0261C43.875 19.0288 43.8701 19.034 43.8615 19.0415L44.3916 19.6575C44.5691 19.5058 44.6876 19.2967 44.6876 19.0428H43.8733ZM43.8387 19.0626C43.8326 19.0686 43.8286 19.0718 43.8261 19.0735C43.8237 19.075 43.8229 19.0753 43.8233 19.0752C43.8233 19.0751 43.8237 19.0751 43.8237 19.075C43.8241 19.0749 43.8241 19.0749 43.8241 19.0749C43.8241 19.0749 43.8224 19.0753 43.8188 19.0753V19.8866C44.0508 19.8866 44.2552 19.7949 44.4144 19.6363L43.8387 19.0626ZM43.8188 19.0753H42.7635V19.8866H43.8188V19.0753ZM42.7635 19.0753C42.6056 19.0753 42.5266 19.0389 42.4859 19.0073L41.9859 19.6478C42.209 19.8206 42.4818 19.8866 42.7635 19.8866V19.0753ZM42.5038 19.0223C42.4346 18.9618 42.3523 18.8597 42.2644 18.6972L41.5476 19.0818C41.665 19.299 41.8027 19.4889 41.9676 19.6329L42.5038 19.0223ZM42.2595 18.6883L39.0718 13.1245L38.3647 13.5267L41.5525 19.0906L42.2595 18.6883ZM38.7183 12.92H34.871V13.7313H38.7183V12.92ZM34.4639 13.3256V18.9771H35.2781V13.3256H34.4639ZM34.4639 18.9771C34.4639 19.0168 34.4546 19.0374 34.4293 19.0626L35.005 19.6363C35.1848 19.4571 35.2781 19.2295 35.2781 18.9771H34.4639ZM34.4522 19.0415C34.4298 19.0606 34.4016 19.0753 34.3434 19.0753V19.8866C34.5783 19.8866 34.7992 19.8136 34.982 19.6575L34.4522 19.0415ZM34.3434 19.0753H33.2222V19.8866H34.3434V19.0753ZM38.4985 11.8693C39.6374 11.8693 40.5674 11.6328 41.2169 11.0899C41.8801 10.5356 42.1813 9.72131 42.1813 8.72557H41.367C41.367 9.55524 41.1223 10.11 40.6935 10.4684C40.2511 10.8382 39.5433 11.058 38.4985 11.058V11.8693ZM42.1813 8.72557C42.1813 7.72979 41.8801 6.91553 41.2169 6.36121C40.5674 5.81833 39.6374 5.5818 38.4985 5.5818V6.3931C39.5433 6.3931 40.2511 6.61292 40.6935 6.98275C41.1223 7.34113 41.367 7.8959 41.367 8.72557H42.1813ZM38.4985 5.5818H34.871V6.3931H38.4985V5.5818ZM34.4639 5.98745V11.4637H35.2781V5.98745H34.4639ZM34.871 11.8693H38.4985V11.058H34.871V11.8693ZM48.1782 18.2104L47.8945 18.5013L47.8965 18.5033L47.8985 18.5053L48.1782 18.2104ZM46.5294 13.6761L46.9361 13.6643V13.6626L46.5294 13.6761ZM46.5294 9.97415L46.9361 9.98815V9.98616L46.5294 9.97415ZM48.2442 5.48364L48.5239 5.77834L48.5259 5.77635L48.2442 5.48364ZM57.016 5.48364L56.7339 5.77635L56.7363 5.77834L57.016 5.48364ZM58.7308 9.97415L58.3237 9.98616V9.98815L58.7308 9.97415ZM58.7308 13.6761L58.3237 13.6626V13.6643L58.7308 13.6761ZM57.06 18.2104L57.3413 18.5034L57.3417 18.5033L57.06 18.2104ZM55.4111 16.7866L55.7018 17.0704L55.4111 16.7866ZM56.5323 13.5666L56.939 13.583V13.5801L56.5323 13.5666ZM56.5323 10.0618L56.939 10.0478V10.0454L56.5323 10.0618ZM55.3891 6.84174L55.098 7.12557L55.1013 7.12858L55.3891 6.84174ZM49.849 6.84174L49.5612 6.55491L49.558 6.55795L49.849 6.84174ZM48.7278 10.0618L48.3211 10.0454L48.3207 10.0478L48.7278 10.0618ZM48.7278 13.5666L48.3207 13.5801L48.3211 13.583L48.7278 13.5666ZM49.849 16.7866L49.558 17.0704L49.5612 17.0734L49.849 16.7866ZM52.6411 19.2943C50.7903 19.2943 49.4155 18.8169 48.4575 17.9155L47.8985 18.5053C49.0511 19.59 50.6515 20.1056 52.6411 20.1056V19.2943ZM48.462 17.9195C47.5228 17.0103 46.9931 15.6162 46.9361 13.6643L46.1223 13.6879C46.1829 15.7665 46.7521 17.3953 47.8945 18.5013L48.462 17.9195ZM46.9361 13.6626C46.9219 13.2313 46.9145 12.6159 46.9145 11.8142H46.1003C46.1003 12.6188 46.1076 13.2447 46.1223 13.6896L46.9361 13.6626ZM46.9145 11.8142C46.9145 11.0123 46.9219 10.4045 46.9361 9.98815L46.1223 9.96016C46.1076 10.3908 46.1003 11.0096 46.1003 11.8142H46.9145ZM46.9361 9.98616C46.9927 8.08582 47.5407 6.7052 48.5239 5.77834L47.9645 5.18893C46.7785 6.30653 46.1829 7.91959 46.1223 9.96214L46.9361 9.98616ZM48.5259 5.77635C49.5181 4.82774 50.8742 4.33403 52.6411 4.33403V3.52274C50.7146 3.52274 49.139 4.06582 47.962 5.19092L48.5259 5.77635ZM52.6411 4.33403C54.3925 4.33403 55.7413 4.82718 56.7339 5.77635L57.2977 5.19092C56.1215 4.06642 54.5537 3.52274 52.6411 3.52274V4.33403ZM56.7363 5.77834C57.7195 6.7052 58.2671 8.08582 58.3237 9.98616L59.1375 9.96214C59.0768 7.91959 58.4816 6.30653 57.2957 5.18893L56.7363 5.77834ZM58.3237 9.98815C58.353 10.8347 58.3676 11.442 58.3676 11.8142H59.1819C59.1819 11.4269 59.1668 10.8076 59.1375 9.96016L58.3237 9.98815ZM58.3676 11.8142C58.3676 12.1718 58.353 12.7864 58.3237 13.6626L59.1375 13.6896C59.1668 12.8134 59.1819 12.1867 59.1819 11.8142H58.3676ZM58.3237 13.6643C58.2671 15.6148 57.7305 17.0081 56.7782 17.9175L57.3417 18.5033C58.4995 17.3975 59.0772 15.7679 59.1375 13.6879L58.3237 13.6643ZM56.7782 17.9175C55.8353 18.8173 54.4764 19.2943 52.6411 19.2943V20.1056C54.6164 20.1056 56.2034 19.5896 57.3413 18.5034L56.7782 17.9175ZM52.6411 18.2437C53.8877 18.2437 54.923 17.8629 55.7018 17.0704L55.12 16.5028C54.5212 17.1122 53.7102 17.4324 52.6411 17.4324V18.2437ZM55.7018 17.0704C56.4884 16.2701 56.8784 15.0823 56.939 13.583L56.1256 13.5502C56.069 14.9423 55.7116 15.9011 55.12 16.5028L55.7018 17.0704ZM56.939 13.5801C56.9684 12.705 56.9834 12.1141 56.9834 11.8142H56.1692C56.1692 12.0984 56.1545 12.6757 56.1252 13.5531L56.939 13.5801ZM56.9834 11.8142C56.9834 11.485 56.9684 10.8943 56.939 10.0478L56.1252 10.0758C56.1545 10.9232 56.1692 11.5008 56.1692 11.8142H56.9834ZM56.939 10.0454C56.878 8.54404 56.4798 7.35505 55.677 6.55491L55.1013 7.12858C55.7051 7.73035 56.069 8.68805 56.1256 10.0782L56.939 10.0454ZM55.6798 6.55795C54.9022 5.76641 53.8747 5.38466 52.6411 5.38466V6.19595C53.6939 6.19595 54.4984 6.51516 55.098 7.12553L55.6798 6.55795ZM52.6411 5.38466C51.3945 5.38466 50.3535 5.7654 49.5612 6.55491L50.1369 7.12858C50.7516 6.51617 51.572 6.19595 52.6411 6.19595V5.38466ZM49.558 6.55795C48.7718 7.35821 48.3818 8.54603 48.3211 10.0454L49.1346 10.0782C49.1911 8.68606 49.5486 7.72719 50.1397 7.12553L49.558 6.55795ZM48.3207 10.0478C48.3061 10.4782 48.2987 11.0677 48.2987 11.8142H49.113C49.113 11.0711 49.1203 10.4924 49.1346 10.0758L48.3207 10.0478ZM48.2987 11.8142C48.2987 12.5463 48.3061 13.1355 48.3207 13.5801L49.1346 13.5531C49.1203 13.1214 49.113 12.5423 49.113 11.8142H48.2987ZM48.3211 13.583C48.3818 15.0823 48.7718 16.2701 49.558 17.0704L50.1397 16.5028C49.5486 15.9011 49.1911 14.9423 49.1346 13.5502L48.3211 13.583ZM49.5612 17.0734C50.3535 17.8629 51.3945 18.2437 52.6411 18.2437V17.4324C51.572 17.4324 50.7516 17.1122 50.1369 16.4998L49.5612 17.0734Z" fill="#09CE35"/>
</g>
</g>
<defs>
<filter id="filter0_f" x="1.81824" y="2.52274" width="58.3636" height="18.5829" filterUnits="userSpaceOnUse" color-interpolation-filters="sRGB">
<feFlood flood-opacity="0" result="BackgroundImageFix"/>
<feBlend mode="normal" in="SourceGraphic" in2="BackgroundImageFix" result="shape"/>
<feGaussianBlur stdDeviation="0.5" result="effect1_foregroundBlur"/>
</filter>
<filter id="filter1_d" x="-1.18176" y="-0.477264" width="64.3636" height="24.5829" filterUnits="userSpaceOnUse" color-interpolation-filters="sRGB">
<feFlood flood-opacity="0" result="BackgroundImageFix"/>
<feColorMatrix in="SourceAlpha" type="matrix" values="0 0 0 0 0 0 0 0 0 0 0 0 0 0 0 0 0 0 127 0" result="hardAlpha"/>
<feOffset/>
<feGaussianBlur stdDeviation="2"/>
<feColorMatrix type="matrix" values="0 0 0 0 0.298039 0 0 0 0 0.54902 0 0 0 0 0.290196 0 0 0 0.75 0"/>
<feBlend mode="normal" in2="BackgroundImageFix" result="effect1_dropShadow"/>
<feBlend mode="normal" in="SourceGraphic" in2="effect1_dropShadow" result="shape"/>
</filter>
<clipPath id="clip0">
<rect width="62" height="22.5455" fill="white"/>
</clipPath>
</defs>
</svg>
