<svg width="22" height="24" viewBox="0 0 22 24" fill="none" xmlns="http://www.w3.org/2000/svg">
<path fill-rule="evenodd" clip-rule="evenodd" d="M16.8 5.99999C16.8 9.3137 14.1137 12 10.8 12C7.4863 12 4.80001 9.3137 4.80001 5.99999C4.80001 2.68629 7.4863 0 10.8 0C14.1137 0 16.8 2.68629 16.8 5.99999ZM14.4 5.99999C14.4 7.98822 12.7882 9.59999 10.8 9.59999C8.81178 9.59999 7.2 7.98822 7.2 5.99999C7.2 4.01177 8.81178 2.4 10.8 2.4C12.7882 2.4 14.4 4.01177 14.4 5.99999Z" fill="#A5A5A5"/>
<path d="M19.2 17.3225C17.031 16.631 13.3399 15.6 10.8 15.6C8.26009 15.6 4.56903 16.631 2.4 17.3225V21.6H16.8L16.8 24H0V16.4379C0 15.9346 0.311728 15.4862 0.788584 15.3252C2.65477 14.6951 7.43726 13.2 10.8 13.2C14.1627 13.2 18.9452 14.6951 20.8114 15.3252C21.2882 15.4862 21.6 15.9346 21.6 16.4379V24H19.2L19.2 17.3225Z" fill="#A5A5A5"/>
</svg>
